<?xml version="1.0" standalone="no"?><!DOCTYPE svg PUBLIC "-//W3C//DTD SVG 1.1//EN" "http://www.w3.org/Graphics/SVG/1.1/DTD/svg11.dtd"><svg t="1506425635680" class="icon" style="" viewBox="0 0 1024 1024" version="1.1" xmlns="http://www.w3.org/2000/svg" p-id="3020" xmlns:xlink="http://www.w3.org/1999/xlink" width="200" height="200"><defs><style type="text/css"></style></defs><path d="M512 32A480 480 0 0 0 32 512a480 480 0 1 0 960-0.064A479.936 479.936 0 0 0 512 32z m-18.176 718.4a49.28 49.28 0 0 1-49.152 49.152H273.6a49.344 49.344 0 0 1-49.216-49.152V579.328c0-27.072 22.144-49.216 49.216-49.216h171.072c27.008 0 49.152 22.144 49.152 49.216v171.072z m0-305.792a49.344 49.344 0 0 1-49.152 49.216H273.6a49.344 49.344 0 0 1-49.216-49.216V273.536c0-27.008 22.144-49.152 49.216-49.152h171.072a49.28 49.28 0 0 1 49.152 49.152v171.072z m305.728 305.792a49.344 49.344 0 0 1-49.216 49.152H579.328a49.28 49.28 0 0 1-49.152-49.152V579.328c0-27.072 22.144-49.216 49.152-49.216h171.072c27.072 0 49.216 22.144 49.216 49.216v171.072h-0.064z m0-305.792a49.344 49.344 0 0 1-49.216 49.216H579.328a49.344 49.344 0 0 1-49.152-49.216V273.536a49.28 49.28 0 0 1 49.152-49.152h171.072c27.072 0 49.216 22.144 49.216 49.152v171.072h-0.064z" p-id="3021"></path><path d="M728.768 571.456H600.96a29.568 29.568 0 0 0-29.44 29.504v127.808c0 16.192 13.248 29.504 29.44 29.504h127.808a29.568 29.568 0 0 0 29.504-29.504V600.96a29.568 29.568 0 0 0-29.504-29.504z" p-id="3022"></path></svg>