<?xml version="1.0" standalone="no"?><!DOCTYPE svg PUBLIC "-//W3C//DTD SVG 1.1//EN" "http://www.w3.org/Graphics/SVG/1.1/DTD/svg11.dtd"><svg t="1506424507827" class="icon" style="" viewBox="0 0 1024 1024" version="1.1" xmlns="http://www.w3.org/2000/svg" p-id="948" xmlns:xlink="http://www.w3.org/1999/xlink" width="200" height="200"><defs><style type="text/css"></style></defs><path d="M134.144 115.712v716.8h614.4c-48.128 0-88.064 38.912-88.064 88.064 0 48.128 38.912 88.064 88.064 88.064 48.128 0 88.064-38.912 88.064-88.064V115.712c0-48.128 38.912-88.064 88.064-88.064H222.208c-48.128 0-88.064 39.936-88.064 88.064z" fill="#F5F5F5" p-id="949"></path><path d="M781.312 60.416v804.864c0 48.128-38.912 88.064-88.064 88.064-9.216 0-19.456-2.048-27.648-4.096 11.264 34.816 45.056 60.416 83.968 60.416 48.128 0 88.064-38.912 88.064-88.064V115.712c0-48.128 38.912-88.064 88.064-88.064h-112.64c-17.408 0-31.744 14.336-31.744 32.768z" fill="#C5C4C7" p-id="950"></path><path d="M924.672 16.384H222.208C167.936 16.384 122.88 61.44 122.88 115.712v716.8c0 6.144 5.12 11.264 11.264 11.264H686.08c-22.528 18.432-36.864 46.08-36.864 76.8 0 54.272 44.032 99.328 99.328 99.328 54.272 0 99.328-44.032 99.328-99.328V115.712c0-41.984 34.816-76.8 76.8-76.8 6.144 0 11.264-5.12 11.264-11.264 0-6.144-5.12-11.264-11.264-11.264z m-99.328 99.328v804.864c0 41.984-34.816 76.8-76.8 76.8s-76.8-34.816-76.8-76.8 34.816-76.8 76.8-76.8c6.144 0 11.264-5.12 11.264-11.264 0-6.144-5.12-11.264-11.264-11.264H145.408V115.712c0-41.984 34.816-76.8 76.8-76.8h640c-22.528 18.432-36.864 46.08-36.864 76.8z" fill="#313333" p-id="951"></path><path d="M924.672 27.648c-48.128 0-88.064 38.912-88.064 88.064h176.128c0-48.128-38.912-88.064-88.064-88.064z" fill="#999999" p-id="952"></path><path d="M924.672 27.648c-27.648 0-52.224 12.288-68.608 32.768 9.216-4.096 20.48-6.144 30.72-6.144 38.912 0 72.704 25.6 83.968 61.44h40.96c1.024-48.128-37.888-88.064-87.04-88.064z" fill="#666666" p-id="953"></path><path d="M924.672 16.384c-54.272 0-99.328 44.032-99.328 99.328 0 6.144 5.12 11.264 11.264 11.264h176.128c6.144 0 11.264-5.12 11.264-11.264v-1.024c-1.024-54.272-45.056-98.304-99.328-98.304z m-75.776 88.064c5.12-36.864 37.888-65.536 75.776-65.536 38.912 0 70.656 28.672 75.776 65.536H848.896z" fill="#313333" p-id="954"></path><path d="M748.544 832.512H99.328c-48.128 0-88.064 38.912-88.064 88.064 0 48.128 38.912 88.064 88.064 88.064h649.216c-48.128 0-88.064-38.912-88.064-88.064 0-48.128 39.936-88.064 88.064-88.064z" fill="#C5C4C7" p-id="955"></path><path d="M668.672 957.44H57.344c-15.36 0-29.696-4.096-41.984-11.264 11.264 35.84 45.056 61.44 83.968 61.44h649.216c-34.816 1.024-65.536-19.456-79.872-50.176z" fill="#999999" p-id="956"></path><path d="M748.544 997.376c-41.984 0-76.8-34.816-76.8-76.8s34.816-76.8 76.8-76.8c6.144 0 11.264-5.12 11.264-11.264 0-6.144-5.12-11.264-11.264-11.264H99.328c-54.272 0-99.328 44.032-99.328 99.328 0 54.272 44.032 99.328 99.328 99.328h649.216c6.144 0 11.264-5.12 11.264-11.264 0-6.144-5.12-11.264-11.264-11.264z m-649.216 0c-41.984 0-76.8-34.816-76.8-76.8s34.816-76.8 76.8-76.8H686.08c-22.528 18.432-36.864 46.08-36.864 76.8s14.336 58.368 36.864 76.8H99.328z" fill="#313333" p-id="957"></path><path d="M336.896 324.608l81.92 172.032 15.36-54.272 52.224 22.528-81.92-172.032z" fill="#DE5A59" p-id="958"></path><path d="M412.672 288.768c-1.024-2.048-3.072-4.096-5.12-4.096-2.048-1.024-4.096-1.024-7.168 0L332.8 317.44c-2.048 1.024-4.096 3.072-4.096 5.12-1.024 2.048-1.024 4.096 0 7.168L411.648 501.76c1.024 3.072 4.096 5.12 8.192 5.12h1.024c4.096 0 7.168-3.072 7.168-6.144l12.288-45.056 43.008 18.432c1.024 0 2.048 1.024 3.072 1.024 5.12 0 9.216-4.096 9.216-9.216 0-2.048 0-3.072-1.024-4.096l-81.92-173.056z m25.6 145.408c-2.048-1.024-5.12-1.024-7.168 0-2.048 1.024-4.096 3.072-5.12 5.12l-9.216 32.768-68.608-143.36 52.224-24.576 68.608 143.36-30.72-13.312z" fill="#323333" p-id="959"></path><path d="M198.656 464.896l52.224-22.528 15.36 54.272 82.944-172.032-67.584-31.744z" fill="#DE5A59" p-id="960"></path><path d="M353.28 317.44l-67.584-32.768c-4.096-2.048-9.216 0-11.264 4.096L190.464 460.8c-2.048 3.072-1.024 7.168 2.048 10.24 2.048 3.072 6.144 3.072 10.24 2.048l43.008-18.432 12.288 45.056c1.024 3.072 4.096 6.144 8.192 6.144h1.024c3.072 0 6.144-2.048 8.192-5.12L358.4 328.704c1.024-2.048 1.024-4.096 0-7.168-2.048-2.048-3.072-3.072-5.12-4.096z m-84.992 154.624l-9.216-32.768c-1.024-2.048-2.048-4.096-5.12-5.12-1.024-1.024-2.048-1.024-4.096-1.024-1.024 0-2.048 0-3.072 1.024l-30.72 13.312 68.608-143.36 52.224 24.576-68.608 143.36z" fill="#323333" p-id="961"></path><path d="M477.184 195.584c1.024-2.048 2.048-4.096 1.024-6.144-1.024-2.048-2.048-4.096-4.096-4.096l-40.96-11.264c-3.072-1.024-5.12-4.096-5.12-7.168L430.08 122.88c0-2.048-1.024-4.096-3.072-6.144-2.048-1.024-4.096-2.048-6.144-1.024l-39.936 15.36c-3.072 1.024-6.144 0-8.192-3.072L348.16 92.16c-1.024-2.048-3.072-3.072-5.12-3.072s-4.096 1.024-5.12 3.072l-21.504 31.744c-2.048 3.072-5.12 4.096-8.192 2.048l-35.84-15.36c-2.048-1.024-4.096-1.024-6.144 0-2.048 1.024-3.072 3.072-3.072 5.12l-1.024 44.032c0 3.072-2.048 6.144-5.12 6.144L215.04 177.152c-2.048 0-4.096 2.048-5.12 4.096-1.024 2.048 0 4.096 1.024 6.144l25.6 34.816c2.048 2.048 2.048 6.144 0 8.192l-28.672 32.768c-1.024 2.048-2.048 4.096-1.024 6.144 1.024 2.048 2.048 4.096 4.096 4.096l41.984 13.312c3.072 1.024 5.12 4.096 4.096 7.168l-4.096 43.008c0 2.048 1.024 4.096 2.048 6.144 2.048 1.024 4.096 2.048 6.144 1.024l40.96-13.312c3.072-1.024 6.144 0 8.192 3.072l23.552 36.864c1.024 2.048 3.072 3.072 5.12 3.072s4.096-1.024 6.144-3.072l24.576-34.816c2.048-2.048 5.12-3.072 8.192-2.048l40.96 16.384c2.048 1.024 4.096 1.024 6.144-1.024 2.048-1.024 3.072-3.072 3.072-6.144l-1.024-43.008c0-3.072 2.048-6.144 5.12-6.144l41.984-11.264c2.048-1.024 4.096-2.048 5.12-4.096 1.024-2.048 0-4.096-1.024-6.144l-26.624-33.792c-2.048-2.048-2.048-6.144 0-8.192l25.6-34.816z" fill="#EEC51B" p-id="962"></path><path d="M427.008 116.736c-2.048-1.024-4.096-2.048-6.144-1.024l-39.936 15.36c-1.024 1.024-3.072 1.024-4.096 0l15.36 22.528c2.048 3.072 5.12 4.096 8.192 2.048l29.696-11.264V122.88c0-2.048-1.024-4.096-3.072-6.144zM343.04 89.088c-2.048 0-4.096 1.024-5.12 3.072l-21.504 31.744c-2.048 3.072-5.12 4.096-8.192 2.048l-35.84-15.36c-2.048-1.024-4.096-1.024-6.144 0-2.048 1.024-3.072 3.072-3.072 5.12l-1.024 44.032c0 3.072-2.048 6.144-5.12 6.144L215.04 177.152c-2.048 0-4.096 2.048-5.12 4.096-1.024 2.048 0 4.096 1.024 6.144l25.6 34.816c2.048 2.048 2.048 6.144 0 8.192l-28.672 32.768c-1.024 2.048-2.048 4.096-1.024 6.144 1.024 2.048 2.048 4.096 4.096 4.096l21.504 7.168 22.528-25.6c2.048-2.048 2.048-6.144 0-8.192l-25.6-34.816c-1.024-2.048-2.048-4.096-1.024-6.144 1.024-2.048 3.072-4.096 5.12-4.096l41.984-9.216c3.072-1.024 5.12-3.072 5.12-6.144l1.024-44.032c0-2.048 1.024-4.096 3.072-5.12 2.048-1.024 4.096-1.024 6.144 0l35.84 15.36c3.072 1.024 6.144 0 8.192-2.048l21.504-31.744c1.024-2.048 3.072-3.072 5.12-3.072h2.048L348.16 92.16c-1.024-2.048-3.072-3.072-5.12-3.072z" fill="#F3DC77" p-id="963"></path><path d="M486.4 186.368c-2.048-5.12-5.12-9.216-10.24-10.24l-39.936-11.264 2.048-41.984c0-5.12-2.048-10.24-6.144-13.312-4.096-3.072-9.216-4.096-14.336-2.048L378.88 122.88l-23.552-34.816c-3.072-4.096-8.192-7.168-13.312-7.168s-10.24 3.072-13.312 7.168l-20.48 30.72-33.792-14.336c-5.12-2.048-10.24-2.048-14.336 1.024-4.096 3.072-7.168 7.168-7.168 12.288l-1.024 41.984-39.936 9.216c-5.12 1.024-9.216 5.12-11.264 9.216-2.048 5.12-1.024 10.24 2.048 14.336l24.576 32.768-27.648 31.744c-3.072 4.096-4.096 9.216-3.072 14.336 1.024 5.12 5.12 9.216 10.24 10.24l39.936 13.312-4.096 40.96c0 5.12 2.048 10.24 6.144 13.312 4.096 3.072 9.216 4.096 14.336 2.048l38.912-13.312 22.528 35.84c3.072 4.096 7.168 7.168 12.288 7.168s10.24-2.048 12.288-6.144l23.552-33.792 38.912 15.36c5.12 2.048 10.24 1.024 14.336-2.048 4.096-3.072 7.168-8.192 6.144-13.312l-1.024-40.96 40.96-10.24c5.12-1.024 9.216-5.12 10.24-10.24 2.048-5.12 1.024-10.24-2.048-14.336l-25.6-32.768 26.624-32.768c6.144-3.072 7.168-8.192 5.12-13.312z m-44.032 37.888c-4.096 5.12-5.12 13.312 0 19.456l24.576 31.744-38.912 10.24c-7.168 2.048-11.264 8.192-11.264 15.36l1.024 39.936-37.888-15.36c-2.048-1.024-4.096-1.024-6.144-1.024-5.12 0-10.24 2.048-12.288 6.144l-22.528 32.768-21.504-34.816c-3.072-4.096-8.192-7.168-13.312-7.168-2.048 0-3.072 0-5.12 1.024l-37.888 12.288 3.072-38.912c1.024-7.168-4.096-13.312-10.24-16.384L216.064 266.24l26.624-30.72c5.12-5.12 5.12-13.312 1.024-19.456L220.16 184.32l38.912-8.192c7.168-1.024 12.288-7.168 12.288-15.36l1.024-40.96 32.768 14.336c2.048 1.024 4.096 1.024 6.144 1.024 5.12 0 10.24-3.072 13.312-7.168l19.456-29.696 22.528 33.792c3.072 4.096 8.192 7.168 13.312 7.168 2.048 0 4.096 0 5.12-1.024l36.864-14.336L419.84 163.84c0 7.168 4.096 13.312 11.264 15.36l37.888 11.264-26.624 33.792z" fill="#323333" p-id="964"></path><path d="M343.04 231.424m-67.584 0a67.584 67.584 0 1 0 135.168 0 67.584 67.584 0 1 0-135.168 0Z" fill="#99C865" p-id="965"></path><path d="M343.04 163.84c-36.864 0-67.584 29.696-67.584 67.584 0 21.504 10.24 41.984 26.624 53.248-4.096-8.192-6.144-18.432-6.144-28.672 0-36.864 29.696-67.584 67.584-67.584 15.36 0 28.672 5.12 39.936 13.312-11.264-22.528-33.792-37.888-60.416-37.888z" fill="#B3D48B" p-id="966"></path><path d="M343.04 155.648c-41.984 0-75.776 33.792-75.776 75.776 0 41.984 33.792 75.776 75.776 75.776 41.984 0 75.776-33.792 75.776-75.776 0-41.984-33.792-75.776-75.776-75.776z m0 134.144c-31.744 0-58.368-26.624-58.368-58.368s26.624-58.368 58.368-58.368 58.368 26.624 58.368 58.368c0 32.768-26.624 58.368-58.368 58.368z" fill="#323333" p-id="967"></path><path d="M418.816 626.688l-1.024-7.168c10.24-12.288 19.456-21.504 27.648-27.648 4.096 4.096 6.144 9.216 7.168 13.312v8.192c0 3.072-3.072 11.264-6.144 23.552-4.096 14.336-7.168 27.648-10.24 40.96-2.048 12.288-3.072 20.48-2.048 22.528 1.024 4.096 2.048 6.144 2.048 8.192 0 2.048 0 2.048-1.024 3.072-2.048 0-5.12 0-10.24-2.048-4.096-2.048-7.168-5.12-8.192-10.24-1.024-7.168 0-19.456 4.096-35.84s9.216-32.768 16.384-49.152c-6.144 2.048-12.288 6.144-18.432 12.288zM524.288 591.872c3.072 1.024 5.12 3.072 7.168 5.12 2.048 3.072 3.072 6.144 4.096 12.288 2.048 12.288 1.024 26.624-4.096 40.96S520.192 676.864 512 686.08c-8.192 9.216-16.384 15.36-23.552 16.384-7.168 1.024-13.312-1.024-18.432-6.144-6.144-5.12-9.216-12.288-10.24-21.504-2.048-10.24 0-22.528 5.12-35.84 5.12-13.312 12.288-25.6 22.528-34.816 9.216-10.24 18.432-15.36 26.624-16.384 5.12-3.072 9.216-1.024 10.24 4.096z m-17.408 20.48l2.048-7.168c-11.264 7.168-20.48 19.456-28.672 34.816-7.168 15.36-10.24 28.672-9.216 38.912 1.024 7.168 4.096 10.24 9.216 9.216 6.144-1.024 13.312-6.144 21.504-15.36s15.36-20.48 19.456-31.744c4.096-11.264 6.144-21.504 5.12-30.72-1.024-6.144-3.072-8.192-7.168-7.168-4.096-1.024-8.192 3.072-12.288 9.216zM603.136 579.584c3.072 1.024 5.12 3.072 7.168 5.12 2.048 3.072 3.072 6.144 4.096 12.288 2.048 12.288 1.024 26.624-4.096 40.96s-11.264 26.624-19.456 35.84c-8.192 9.216-16.384 15.36-23.552 16.384-7.168 1.024-13.312-1.024-18.432-6.144-6.144-5.12-9.216-12.288-10.24-21.504-2.048-10.24 0-22.528 5.12-35.84 5.12-13.312 12.288-25.6 22.528-34.816 9.216-10.24 18.432-15.36 26.624-16.384 5.12-3.072 9.216-1.024 10.24 4.096z m-17.408 20.48l2.048-7.168c-11.264 7.168-20.48 19.456-28.672 34.816-7.168 15.36-10.24 28.672-9.216 38.912 1.024 7.168 4.096 10.24 9.216 9.216 6.144-1.024 13.312-6.144 21.504-15.36s15.36-20.48 19.456-31.744 6.144-21.504 5.12-30.72c-1.024-6.144-3.072-8.192-7.168-7.168-4.096-1.024-8.192 2.048-12.288 9.216zM698.368 624.64c16.384-1.024 25.6 4.096 26.624 15.36 1.024 6.144 0 14.336-2.048 24.576-3.072 10.24-6.144 18.432-10.24 23.552-4.096 5.12-7.168 8.192-9.216 8.192-1.024 0-2.048 0-2.048-1.024-1.024-1.024-1.024-2.048-3.072-2.048-1.024-1.024-3.072-1.024-6.144-2.048-6.144-2.048-11.264-5.12-14.336-8.192-3.072-3.072-5.12-5.12-5.12-6.144v-2.048s1.024-1.024 1.024 0c3.072 1.024 7.168 1.024 11.264 1.024h10.24c4.096-1.024 7.168-3.072 9.216-6.144 2.048-4.096 4.096-8.192 5.12-13.312 1.024-5.12 1.024-9.216 1.024-11.264-1.024-4.096-3.072-5.12-8.192-4.096-5.12 1.024-10.24 2.048-15.36 5.12s-10.24 6.144-14.336 9.216c-4.096 4.096-7.168 5.12-9.216 6.144-2.048 0-3.072 0-4.096-1.024-1.024-1.024-1.024-4.096-2.048-8.192 0-3.072 0-6.144 1.024-9.216 1.024-3.072 2.048-5.12 3.072-6.144 1.024-1.024 3.072-2.048 6.144-2.048 6.144-8.192 10.24-14.336 14.336-19.456s5.12-9.216 5.12-10.24c0-1.024-1.024-1.024-2.048-1.024s-6.144 2.048-13.312 6.144c-7.168 4.096-15.36 9.216-21.504 14.336-3.072 2.048-5.12 4.096-7.168 4.096-2.048 0-4.096-2.048-5.12-8.192-2.048-11.264 1.024-18.432 7.168-20.48 3.072-1.024 5.12-2.048 6.144-4.096 1.024-1.024 4.096-5.12 9.216-11.264 5.12-6.144 8.192-11.264 10.24-15.36 2.048-4.096 4.096-7.168 5.12-9.216 1.024-3.072 1.024-4.096 1.024-6.144 0-1.024-1.024-2.048-1.024-3.072-1.024-1.024-1.024-3.072-3.072-6.144-1.024-3.072-2.048-4.096-2.048-5.12 0-1.024 0-1.024 1.024-1.024s2.048 0 3.072 2.048c1.024 1.024 4.096 2.048 10.24 4.096 5.12 1.024 8.192 3.072 10.24 3.072 1.024 1.024 3.072 3.072 4.096 5.12 1.024 3.072 2.048 5.12 2.048 7.168 0 2.048 0 5.12-2.048 7.168-1.024 2.048-4.096 5.12-8.192 8.192-4.096 3.072-7.168 8.192-11.264 13.312 16.384-1.024 25.6 4.096 26.624 14.336 1.024 5.12 0 9.216-3.072 12.288-2.048 2.048-4.096 6.144-5.12 9.216z m20.48-41.984h2.048c2.048 0 7.168 1.024 14.336 0 8.192 0 13.312 0 16.384 2.048 3.072 2.048 5.12 4.096 6.144 6.144 1.024 3.072 2.048 5.12 3.072 7.168 0 2.048 0 4.096-1.024 5.12-1.024 2.048-3.072 3.072-5.12 3.072-3.072 0-8.192-1.024-15.36-5.12s-12.288-7.168-15.36-11.264c-3.072-3.072-5.12-5.12-5.12-6.144-2.048 0-1.024-1.024 0-1.024z" fill="#DE5A59" p-id="968"></path><path d="M521.216 736.256c26.624-4.096 52.224-8.192 78.848-12.288 12.288-2.048 7.168-20.48-5.12-18.432-26.624 4.096-52.224 8.192-78.848 12.288-12.288 2.048-7.168 20.48 5.12 18.432z" fill="#DE5A59" p-id="969"></path><path d="M457.728 782.336c93.184-34.816 195.584-21.504 285.696-60.416 11.264-5.12 1.024-21.504-9.216-16.384-88.064 37.888-190.464 24.576-281.6 58.368-11.264 4.096-6.144 22.528 5.12 18.432z" fill="#DE5A59" p-id="970"></path></svg>