<?xml version="1.0" standalone="no"?><!DOCTYPE svg PUBLIC "-//W3C//DTD SVG 1.1//EN" "http://www.w3.org/Graphics/SVG/1.1/DTD/svg11.dtd"><svg t="1506426064403" class="icon" style="" viewBox="0 0 1024 1024" version="1.1" xmlns="http://www.w3.org/2000/svg" p-id="3907" xmlns:xlink="http://www.w3.org/1999/xlink" width="200" height="200"><defs><style type="text/css"></style></defs><path d="M206 431.6h134.2V330.9H206v100.7zM441 431.6h134.2V330.9H441v100.7zM675.7 431.6h134.2V330.9H675.7v100.7zM206 602.4h134.2V501.6H206v100.8zM441 602.4h134.2V501.6H441v100.8zM675.7 602.4h134.2V501.6H675.7v100.8zM206 773.2h134.2V672.4H206v100.8zM441 773.2h134.2V672.4H441v100.8zM675.7 773.2h134.2V672.4H675.7v100.8z" fill="" p-id="3908"></path><path d="M886.1 170.8H718.9v36.4h166.7c24.2 0 43.9 19.7 43.9 43.9v605.1c0 16.3-8.6 27.5-29.8 29.3H138.4c-35.2 0-43.9-3.8-43.9-43.9V251.1c0-24.2 19.7-43.9 43.9-43.9h166.5v-36.4h-167c-40.8 0-74 33.2-74 74v599.9c0 60.3 22.7 74 74 74h748.2c50 0 74-16.6 74-74V244.8c0-40.8-33.2-74-74-74z" fill="" p-id="3909"></path><path d="M324.9 105.4h30.6v142.1h-30.6zM496.9 105.4h30.6v142.1h-30.6zM668.8 105.4h30.6v142.1h-30.6zM384.2 172.5h84v30.6h-84zM556.1 172.5h84v30.6h-84z" fill="" p-id="3910"></path></svg>