<?xml version="1.0" standalone="no"?><!DOCTYPE svg PUBLIC "-//W3C//DTD SVG 1.1//EN" "http://www.w3.org/Graphics/SVG/1.1/DTD/svg11.dtd"><svg t="1506424474529" class="icon" style="" viewBox="0 0 1024 1024" version="1.1" xmlns="http://www.w3.org/2000/svg" p-id="717" xmlns:xlink="http://www.w3.org/1999/xlink" width="200" height="200"><defs><style type="text/css"></style></defs><path d="M241.866887 502.206951c-13.62579 0-24.666481 11.041993-24.666481 24.666481l0 447.7897L65.306949 974.663133 65.306949 59.668153c0-5.701276 4.633914-10.33519 10.326079-10.33519l131.234791 0c5.701276 0 10.333889 4.633914 10.333889 10.33519l0 140.565099c0 13.62579 11.040691 24.666481 24.666481 24.666481 13.62579 0 24.666481-11.040691 24.666481-24.666481L266.53467 59.668153c0-32.898187-26.769966-59.668153-59.666851-59.668153L75.631726 0C42.736143 0 15.972685 26.769966 15.972685 59.668153l0 964.330546 250.560683 0L266.533368 526.874734C266.533368 513.248944 255.492678 502.206951 241.866887 502.206951L241.866887 502.206951z" p-id="718"></path><path d="M602.770698 884.83679c-13.627092 0-24.667783 11.040691-24.667783 24.665179l0 65.159862L426.209458 974.661831 426.209458 708.269042c0-13.627092-11.040691-24.665179-24.666481-24.665179s-24.666481 11.038088-24.666481 24.665179l0 315.729656 250.560683 0 0-114.495427C627.435877 895.878783 616.393885 884.83679 602.770698 884.83679L602.770698 884.83679z" p-id="719"></path><path d="M762.445486 563.200195c13.627092 0 24.665179-11.040691 24.665179-24.667783L787.110665 254.256099c0-5.693466 4.635216-10.326079 10.327381-10.326079l131.241299 0c5.694768 0 10.327381 4.632612 10.327381 10.326079l0 120.964684c0 13.62579 11.040691 24.666481 24.667783 24.666481 13.624489 0 24.665179-11.040691 24.665179-24.666481l0-120.964684c0-32.898187-26.763457-59.660343-59.660343-59.660343L797.439348 194.595757c-1.709081 0-3.376509 0.174423-4.982759 0.503743-30.535672 2.578591-54.680187 27.964891-54.680187 59.1566l0 284.276313C737.776402 552.158203 748.818394 563.200195 762.445486 563.200195L762.445486 563.200195z" p-id="720"></path><path d="M401.541675 497.838576c13.62579 0 24.666481-11.040691 24.666481-24.666481l0-21.166314c0-5.692165 4.633914-10.324777 10.326079-10.324777 0.179629 0 0.346242-0.049463 0.525871-0.053368 0.180931 0.003905 0.346242 0.053368 0.527173 0.053368l130.190859 0c5.692165 0 10.324777 4.632612 10.324777 10.324777l0 180.390727c0 13.627092 11.040691 24.665179 24.667783 24.665179 13.624489 0 24.665179-11.038088 24.665179-24.665179L627.435877 452.005781c0-32.896885-26.760854-59.659041-59.657739-59.659041l-130.19216 0c-0.179629 0-0.346242 0.048161-0.525871 0.053368-0.180931-0.005207-0.346242-0.053368-0.527173-0.053368-32.896885 0-59.659041 26.762156-59.659041 59.659041l0 21.166314C376.875194 486.797885 387.917187 497.838576 401.541675 497.838576L401.541675 497.838576z" p-id="721"></path><path d="M963.673207 627.603792c-13.627092 0-24.667783 11.040691-24.667783 24.665179l0 322.395464L787.110665 974.664435 787.110665 733.931294c0-13.627092-11.038088-24.667783-24.665179-24.667783s-24.667783 11.040691-24.667783 24.667783l0 290.067404L988.339688 1023.998698l0-371.728426C988.339688 638.645784 977.300299 627.603792 963.673207 627.603792L963.673207 627.603792z" p-id="722"></path><path d="M871.886562 579.066144c14.294844 10.967798 31.954483 17.753358 51.324504 17.753358 46.766086 0 84.816248-38.052766 84.816248-84.82536 0-46.763483-38.050162-84.816248-84.816248-84.816248-46.771293 0-84.821455 38.051464-84.821455 84.816248 0 9.468284 1.917347 18.422412 4.792717 26.933975L614.408851 709.298656c-14.755632-12.421754-33.541208-20.203085-54.29099-20.203085-13.075187 0-25.321217 3.221612-36.393147 8.529786L261.204367 395.750584c14.043623-15.142226 22.827234-35.241177 22.827234-57.473552 0-46.763483-38.051464-84.814947-84.816248-84.814947s-84.816248 38.051464-84.816248 84.814947c0 46.772594 38.051464 84.824058 84.816248 84.824058 6.371632 0 12.531093-0.833063 18.504417-2.172473l269.65345 310.076541c-7.484552 12.637829-12.071607 27.193006-12.071607 42.91447 0 46.763483 38.052766 84.813645 84.816248 84.813645 46.766086 0 84.816248-38.050162 84.816248-84.813645 0-8.076808-1.49691-15.737085-3.614713-23.142236L871.886562 579.066144 871.886562 579.066144zM923.209764 476.512158c19.567874 0 35.483286 15.915412 35.483286 35.483286 0 19.567874-15.915412 35.491096-35.483286 35.491096-12.154913 0-22.888412-6.156858-29.287379-15.502786-0.013017-0.018223-0.02343-0.040351-0.035145-0.058575-0.029938-0.042955-0.074195-0.074195-0.104133-0.114546-3.825582-5.662227-6.063138-12.480328-6.063138-19.81519C887.722573 492.42757 903.644494 476.512158 923.209764 476.512158L923.209764 476.512158zM163.730765 338.275731c0-19.567874 15.915412-35.481985 35.483286-35.481985s35.481985 15.914111 35.481985 35.481985c0 19.567874-15.914111 35.491096-35.481985 35.491096S163.730765 357.844907 163.730765 338.275731L163.730765 338.275731zM560.117861 809.399011c-19.567874 0-35.483286-15.912809-35.483286-35.480683s15.915412-35.4937 35.483286-35.4937 35.483286 15.921921 35.483286 35.4937C595.601148 793.487504 579.685735 809.399011 560.117861 809.399011L560.117861 809.399011z" p-id="723"></path></svg>