<?xml version="1.0" standalone="no"?><!DOCTYPE svg PUBLIC "-//W3C//DTD SVG 1.1//EN" "http://www.w3.org/Graphics/SVG/1.1/DTD/svg11.dtd"><svg t="1506425618923" class="icon" style="" viewBox="0 0 1024 1024" version="1.1" xmlns="http://www.w3.org/2000/svg" p-id="2344" xmlns:xlink="http://www.w3.org/1999/xlink" width="200" height="200"><defs><style type="text/css"></style></defs><path d="M909.52704 56.32H114.46272A114.39104 114.39104 0 0 0 0 170.33216v688.38912A114.4064 114.4064 0 0 0 114.46272 972.8h795.06432A114.36544 114.36544 0 0 0 1024 858.72128V170.39872A114.49344 114.49344 0 0 0 909.52704 56.32z m49.24928 802.47296a49.32096 49.32096 0 0 1-49.31072 49.18784H114.46272a49.32096 49.32096 0 0 1-49.31072-49.18784V170.39872a49.31072 49.31072 0 0 1 49.31072-49.1264h795.06432a49.31072 49.31072 0 0 1 49.31584 49.1264v688.38912h-0.06656zM152.63232 214.07232h718.592v66.90304H152.63232V214.07232z m391.90016 201.8816h326.7584v66.90816h-326.7584V415.95392z m0 135.56224h326.7584v95.97952h-326.7584v-95.97952z m0 190.20288H812.032v66.90816h-267.49952v-66.90816zM152.63232 416.92672H463.104v391.68H152.63232v-391.68z" p-id="2345"></path></svg>