<?xml version="1.0" standalone="no"?><!DOCTYPE svg PUBLIC "-//W3C//DTD SVG 1.1//EN" "http://www.w3.org/Graphics/SVG/1.1/DTD/svg11.dtd"><svg t="1506425602597" class="icon" style="" viewBox="0 0 1024 1024" version="1.1" xmlns="http://www.w3.org/2000/svg" p-id="1677" xmlns:xlink="http://www.w3.org/1999/xlink" width="200" height="200"><defs><style type="text/css"></style></defs><path d="M988.69248 105.37984H40.42752A35.28704 35.28704 0 0 0 5.12 140.67712V757.504a35.29728 35.29728 0 0 0 35.30752 35.34336h220.05248l-18.9952-70.62016H75.74528V176.01024H953.344V722.2272h-157.7984c41.51296 17.35168 80.46592 41.14944 115.50208 70.62016h77.6448A35.31776 35.31776 0 0 0 1024 757.504V140.67712a35.31264 35.31264 0 0 0-35.30752-35.29728z" fill="#9A89B9" p-id="1678"></path><path d="M755.29216 782.2336a407.2448 407.2448 0 0 0-11.39712-4.06528 213.84704 213.84704 0 0 0-7.86432-2.56512 284.47744 284.47744 0 0 0-20.29056-5.84192 10.94656 10.94656 0 0 0-5.248-1.33632h-5.72928c-1.80224 0-3.61472 0.4608-5.21728 1.29536-19.10272 10.2656-45.34784 16.15872-71.95648 16.15872-26.63424 0-52.83328-5.89312-72.00768-16.15872a11.29984 11.29984 0 0 0-5.1968-1.33632h-4.18304c-0.83456 0-1.69472 0.1536-2.50368 0.32256a319.232 319.232 0 0 0-22.18496 6.21056c-3.16928 0.896-6.32832 1.99168-9.48736 3.09248-3.37408 1.11104-6.656 2.31424-9.9584 3.57888a373.31968 373.31968 0 0 0-26.97728 11.2384l-0.01536 0.01024c-11.23328 5.22752-22.36416 10.77248-33.11104 17.08544l-10.74688-17.08544-11.10528-17.64352-84.36736-134.12864a21.26336 21.26336 0 0 0-26.43456-8.13568 21.248 21.248 0 0 0-11.9808 24.93952l17.31072 64.34816 18.99008 70.62016 29.38368 109.19936c0.55296 2.03264 1.45408 3.89632 2.5344 5.64736v5.01248c0 6.08768 4.9408 11.0336 11.03872 11.0336h502.02112a11.008 11.008 0 0 0 10.98752-11.0336v-39.35744c0-2.94912-1.19296-5.76512-3.31776-7.8592-38.0416-36.9408-82.75968-65.16736-130.98496-83.24608z" fill="#9A89B9" p-id="1679"></path><path d="M503.74656 599.84384c0 11.89888 9.088 21.49888 20.27008 21.49888l0.35328-0.02048c4.18304 56.57088 48.768 113.19296 103.21408 113.19296 54.43072 0 99.01056-56.6272 103.1936-113.19296 0.11776 0 0.27136 0.02048 0.27136 0.02048 11.2896 0 20.36224-9.6 20.36224-21.49888 0-8.77056-4.9408-16.25088-12.0064-19.58912a132.21888 132.21888 0 0 0 6.35904-40.46848c0-69.22752-52.9152-125.32224-118.17984-125.32224s-118.17984 56.09472-118.17984 125.32224c0 14.14656 2.2784 27.74016 6.3488 40.46848-7.0656 3.33824-12.0064 10.81856-12.0064 19.58912z" fill="#9A89B9" p-id="1680"></path></svg>