<?xml version="1.0" standalone="no"?><!DOCTYPE svg PUBLIC "-//W3C//DTD SVG 1.1//EN" "http://www.w3.org/Graphics/SVG/1.1/DTD/svg11.dtd"><svg t="1506425583640" class="icon" style="" viewBox="0 0 1028 1024" version="1.1" xmlns="http://www.w3.org/2000/svg" p-id="1530" xmlns:xlink="http://www.w3.org/1999/xlink" width="200.78125" height="200"><defs><style type="text/css"></style></defs><path d="M955.57 783.104a24.512 24.512 0 1 1 0-48.96 23.232 23.232 0 0 0 19.137-9.856 25.088 25.088 0 0 0 2.944-22.72 315.008 315.008 0 0 0-196.864-191.552 24.448 24.448 0 1 1 15.232-46.528 364.16 364.16 0 0 1 227.712 221.568 74.24 74.24 0 0 1-9.088 67.456 71.36 71.36 0 0 1-59.072 30.592z" fill="#4D4D4D" p-id="1531"></path><path d="M773.683 513.92a24.512 24.512 0 0 1-11.84-45.888 184.32 184.32 0 0 0 95.488-161.408c0-89.472-63.872-165.76-151.744-181.312a24.576 24.576 0 0 1 8.512-48.256A232.832 232.832 0 0 1 906.29 306.624a233.408 233.408 0 0 1-120.96 204.288 23.616 23.616 0 0 1-11.648 3.008z m-22.848 318.144a24.448 24.448 0 1 1 0-48.96 32 32 0 0 0 26.368-13.632 33.6 33.6 0 0 0 4.032-31.104 377.536 377.536 0 0 0-236.096-229.76 24.576 24.576 0 0 1-15.68-30.912 24.512 24.512 0 0 1 30.848-15.616A426.688 426.688 0 0 1 827.25 721.92c9.152 25.472 5.376 53.824-10.176 75.84a80 80 0 0 1-66.24 34.304z m-669.248 0c-26.752 0-50.944-12.48-66.368-34.368A83.2 83.2 0 0 1 5.043 721.92 426.752 426.752 0 0 1 272.05 462.08a24.448 24.448 0 0 1 15.232 46.528 377.344 377.344 0 0 0-236.096 229.76 33.6 33.6 0 0 0 4.032 31.104 32 32 0 0 0 26.368 13.632 24.448 24.448 0 0 1 0 48.96z" fill="#4D4D4D" p-id="1532"></path><path d="M416.179 543.552a272.064 272.064 0 0 1-271.744-271.808A272.064 272.064 0 0 1 416.179 0a272.064 272.064 0 0 1 271.808 271.744 272.128 272.128 0 0 1-271.808 271.808z m0-494.592c-122.88 0-222.784 99.968-222.784 222.784s99.904 222.848 222.784 222.848 222.784-99.968 222.784-222.848S539.059 48.96 416.179 48.96z" fill="#4D4D4D" p-id="1533"></path></svg>